<svg width="14" height="14" viewBox="0 0 14 14" fill="none" xmlns="http://www.w3.org/2000/svg">
<path d="M12.4223 9.44495L10.5173 9.22745C10.0598 9.17495 9.60979 9.33245 9.28729 9.65495L7.90729 11.0349C5.78479 9.95495 4.04479 8.22245 2.96479 6.09245L4.35229 4.70495C4.67479 4.38245 4.83229 3.93245 4.77979 3.47495L4.56229 1.58495C4.47229 0.827447 3.83479 0.257446 3.06979 0.257446H1.77229C0.924787 0.257446 0.219786 0.962446 0.272286 1.80995C0.669786 8.21495 5.79229 13.3299 12.1898 13.7274C13.0373 13.7799 13.7423 13.0749 13.7423 12.2274V10.9299C13.7498 10.1724 13.1798 9.53495 12.4223 9.44495Z" fill="#AEB4C5"/>
</svg>
